Patient4_TMGait_0pt2_02_left_02_EMG.mot
version=1
nRows=39
nColumns=33
inDegrees=no
endheader
time	1LAddLong	2LGlutMax	3LGlutMed	4LIliopsoas	5LSemiMemb	6LBicFemLong	7LRecFem	8LVastMed	9LVastLat	10LGasMed	11LTibAnt	12lTibPost	13LPeroneusLong	14LSol	15LExtDigLong	16LFlexDigLong	17RAddLong	18RGlutMax	19RGlutMed	20RIliopsoas	21RSemiMemb	22RBicFemLong	23RRecFem	24RVastMed	25RVastLat	26RGasMed	27RTibAnt	28RTibPost	29RPeroneusLong	30RSol	31RExtDigLong	32RFlexDigLong
5.805	0.013885	0.057526	0.055237	-0.002289	0.010376	0.039215	-0.061035	0.019379	0.000153	-0.093689	-0.011902	0.020447	-0.025024	-0.092773	-0.047302	-0.028229	-0.005798	0.056305	-0.66009	0.11444	0.43549	0.009918	0.099487	0.013123	0.047455	0.00061	0.015411	-0.010681	0.002899	-0.005188	-0.001373	-0.007324
5.806	0.010986	0.1033	0.029144	0.003815	0.042419	0.026855	-0.029144	0.018616	-0.078125	-0.024872	-0.00473	0.037537	-0.002289	-0.1561	-0.041504	-0.005646	0.000916	0.037231	-0.42313	0.001068	0.31677	0.020142	0.1033	-0.005646	0.028992	-0.001831	0.035858	-0.014954	-0.007477	0.010376	0.000763	-0.016022
5.807	0.012512	0.058289	-0.011749	-0.009003	0.04776	0.025635	-0.028839	0.00824	-0.065765	-0.057831	-0.005646	0.01236	-0.012207	-0.033112	0.006104	0.01297	0.003815	-0.022278	-0.018921	-0.029907	0.22095	0.036926	0.19211	0.062714	0.015564	-0.006256	0.053711	-0.010376	0.029907	0.028076	0.006104	-0.008087
5.808	0.006714	0.091858	-0.006714	-0.004272	0.033875	0.043945	0.050201	-0.00061	0.033417	-0.043945	-0.005341	0.005188	-0.00412	-0.004883	0.027771	0.020752	-0.007629	0.021667	0.050507	-0.15564	0.20584	0.03479	0.20966	0.067902	-0.008087	-0.008698	0.052948	-0.006714	-0.070648	-0.018616	0	-0.016785
5.809	0.002136	0.061493	0.08667	0.00824	0.013428	0.051575	0.062256	-0.001373	0.12955	-0.05249	-0.006409	0.006104	-0.029297	0.1503	0.037079	-0.017853	-0.018311	0.00885	-0.32242	-0.19058	0.2182	0.022736	0.29434	0.035248	-0.045929	-0.003967	0.001373	-0.008087	-0.018768	-0.028229	-0.004272	-0.011292
5.81	-0.007629	0.054779	0.04837	-0.003967	0.005951	0.012054	0.032959	0.000305	0.13306	-0.065765	-0.007477	-0.00885	-0.074921	0.13931	0.03067	-0.010681	-0.010681	0.041351	-0.24658	-0.069122	0.20584	0.040131	0.29526	-0.018005	-0.0737	0.001526	-0.05127	-0.009613	0.10483	-0.004578	-0.002441	-0.012817
5.811	-0.004578	0.042877	0.021362	0.004272	0.006714	-0.007172	0.045929	0.002441	0.10605	-0.054321	-0.005798	-0.036469	-0.12497	0.024719	0.021515	-0.003204	-0.006714	0.020599	-0.3978	0.10956	0.20706	0.061646	0.19577	-0.050201	-0.080261	-0.000916	-0.022583	0.000153	0.093689	-0.002289	-0.000916	-0.000916
5.812	-0.012207	0.02182	0.036163	-0.002594	-0.012665	-0.032501	0.10147	0.014648	0.00885	-0.019836	-0.007477	0.019989	0.11383	0.070648	0.022583	0.001831	0.000763	0.052032	-0.59052	0.15198	0.19684	0.030975	0.14984	-0.121	-0.12604	0.000916	-0.041656	0.022583	0.11002	0.079346	-0.001984	-0.016022
5.813	-0.000305	-0.027466	0.008392	0.002289	-0.04837	-0.070038	0.088654	0.012207	-0.005493	0.004883	-0.003662	-0.012512	0.068054	0.26916	0.009613	-0.005951	-0.000763	0.10101	-0.8429	0.13412	0.19882	0.013733	0.12024	-0.1326	-0.16281	-0.003967	-0.018768	0.068512	0.057526	0.037689	-0.000305	-0.00824
5.814	0.003052	-0.088196	-0.063934	0.001373	-0.028687	-0.061188	-0.032349	0.002289	0.053406	0.003204	0.006256	-0.007935	0.1033	0.22003	0.001221	-0.010071	-0.014343	0.10819	-0.098114	0.048218	0.16937	0.009308	0.17105	-0.12878	-0.093079	-0.002899	-0.071716	-0.32318	-0.007019	0.031586	-0.001831	-0.019073
5.815	0.019226	-0.12024	-0.054626	-0.010071	0.023499	-0.048218	-0.12573	-0.001678	0.10605	0.001678	-0.002289	-0.015106	-0.014191	0.15976	0.010223	-0.019073	0.002289	0.06012	0.098724	-0.037994	0.15411	0.023499	-0.019836	0.063629	0.040436	-0.011444	-0.090027	0.051117	0.000153	0.048981	0.001526	-0.016937
5.816	0.013733	-0.11414	-0.018005	-0.004425	0.055695	-0.037537	-0.10452	-0.01709	0.16876	-0.014954	-0.016022	-0.011749	-0.10223	0.13794	0.014038	-0.005951	-0.002136	0.075226	0.70206	-0.053101	0.15076	0.05127	-0.14343	0.012665	0.075073	-0.000458	-0.086365	0.051727	-0.023041	0.074463	-0.004425	-0.022888
5.817	0.006561	-0.13306	0.019989	-0.016327	0.011749	0.081482	-0.030518	-0.014191	0.12543	-0.000763	-0.006104	-0.005646	-0.027924	0.18875	0.016022	0.011749	-0.007782	-0.086365	0.30121	0.010986	0.17334	0.068817	-0.037079	-0.03418	0.010834	0.003967	-0.033112	0.020599	-0.00946	-0.002594	-0.00351	-0.023193
5.818	0.00061	-0.037537	0.001373	-0.002289	-0.036621	0.095673	0.00946	-0.015259	-0.065002	0.010071	-0.001068	-0.005035	-0.053711	0.12131	0.00885	0.023956	0.003357	-0.09613	-0.27344	0.003204	0.22079	0.015564	-0.005341	-0.090332	-0.039978	-0.000153	0.024109	0.007477	0.003204	-0.10239	-0.009308	-0.022278
5.819	-0.003204	-0.004425	-0.010529	-0.003967	-0.045166	0.048676	0.009613	-0.010681	-0.1831	0.005341	-0.005646	-0.000763	-0.071106	-0.065918	0.023041	0.005798	0.007019	-0.022125	-0.1976	-0.031128	0.28717	0.012054	-0.13046	-0.061798	0.052643	-0.000916	0.14816	-0.000153	-0.050812	-0.10742	-0.006104	-0.016785
5.82	0.008392	0.022888	-0.029755	-0.006104	0.036926	0.015106	-0.023193	-0.004272	-0.12161	0.012817	-0.012512	-0.003662	-0.031891	0.005035	0.010376	-0.001221	0.009155	0.009155	0.14313	0.003967	0.26169	0.010986	-0.16998	-0.089569	0.045624	0.004883	0.15488	0.000458	-0.066376	0.004883	-0.003815	-0.018921
5.821	0.001068	0.04425	0.003204	-0.001678	0.06073	0.048218	-0.021973	0.001526	-0.062866	-0.010223	-0.031738	-0.006104	0.11063	0.010986	-0.008087	0.01709	0.011444	0.041504	-0.071259	0.016479	0.2388	0.007324	-0.10651	-0.060425	0.091858	-0.002747	0.096741	-0.001984	-0.037079	0.030975	-0.003357	-0.016479
5.822	0.003815	0.06485	0.001831	0.010223	0.04837	-0.046539	-0.023804	0.003052	-0.042114	0.004272	-0.015717	0.005646	-0.019836	-0.078735	-0.011292	-0.000153	-0.00061	-0.003204	-0.076752	0.023041	0.17212	0.045319	-0.023499	-0.038605	0.15045	0.001221	0.071716	-0.001678	-0.044861	-0.00946	-0.001831	-0.009918
5.823	-0.001373	0.019379	-0.024719	-0.00473	0.019989	-0.067291	-0.016174	0.008392	-0.03067	-0.002289	0.005493	-0.094757	-0.001373	-0.041809	0.051575	-0.005493	0.000458	-0.038757	-0.16449	0.02655	0.086212	0.096893	0.063477	0.004272	0.079346	0.001984	0.04425	0	0.019684	0.045471	-0.000305	-0.017853
5.824	0.001831	0.027618	-0.001831	-0.00351	-0.017853	-0.022736	-0.010986	-0.000153	-0.023193	-0.036163	-0.001373	0.1651	-0.07309	0.026093	0.048523	-0.013123	0.020447	-0.007019	0.037842	-0.005035	0.12955	0.057983	0.098877	0.065613	0.04303	-0.001678	0.029144	-0.007324	0.034485	0.056915	-0.002594	-0.023499
5.825	-0.002899	0.0354	-0.014648	-0.002441	0.002136	-0.05722	0.003662	-0.006104	-0.006409	-0.026398	-0.014801	0.14496	-0.056915	-0.006866	0.019379	-0.000305	0.046692	-0.014954	-0.19012	0.005035	0.15076	-0.016479	0.11017	0.10788	-0.045776	-0.003967	0.018768	-0.007019	0.043335	0.075226	-0.002441	-0.014801
5.826	0.008392	0.003052	-0.029144	-0.002441	-0.001678	-0.020294	0.016327	-0.007935	-0.014038	0.12375	-0.010986	-0.009766	0.18188	0.036163	-0.007477	-0.003052	0.068359	-0.01236	-0.42328	0.015411	0.20569	-0.057068	0.080414	0.056915	-0.071869	-0.005951	0.035248	0.00351	-0.032959	0.007477	0	-0.014038
5.827	0.005798	0.001526	-0.080872	0.000763	-0.001526	0.032043	0.006256	-0.001221	-0.010834	0.21469	-0.014648	0.025482	0.32989	0.13107	0.014648	0.014496	0.075531	-0.037384	-0.74875	0.021973	0.17944	-0.082245	0.001068	-0.10727	-0.062103	-0.011902	0.033112	-0.007935	-0.11108	0.001526	-0.001526	-0.022888
5.828	0.009613	-0.015259	-0.13641	-0.007019	0.023193	0.13458	0.00351	-0.002747	0.006256	0.24292	-0.009308	-0.013428	-0.028381	0.16281	0.026093	0.020905	0.031738	-0.030365	-0.47989	-0.093994	0.095367	-0.015106	-0.12741	-0.18265	-0.090179	-0.005798	0.047302	-0.009003	-0.020752	0.005188	-0.001068	-0.021362
5.829	0.004578	0.021057	-0.090332	-0.003967	0.001984	0.33081	0.020294	-0.002441	-0.003357	0.14191	-0.002747	-0.046997	-0.26947	-0.011597	-0.023499	-0.02182	-0.035706	-0.018005	0.78674	-0.12238	-0.16113	0.13611	-0.19058	-0.18433	-0.006256	-0.003967	0.015106	-0.00885	0.058899	0.032043	-0.001526	-0.021667
5.83	-0.007324	0.01236	-0.11429	0.001526	-0.027161	0.58563	0.021057	-0.001678	-0.004578	-0.015259	-0.006256	-0.052643	-0.067902	-0.050354	-0.042419	-0.073242	-0.072021	0.017548	0.54321	-0.16586	-0.089417	0.22553	-0.16815	0.030823	0.023041	0.010223	0.021515	-0.010376	0.014191	0.028534	-0.004883	-0.025024
5.831	0.006714	0.025787	-0.094299	-0.004883	-0.046387	0.62454	0.027924	0.000763	0.002289	-0.13275	-0.009155	-0.034637	0.072327	-0.076141	-0.041656	-0.096436	-0.064087	0.032806	-0.057831	-0.031738	0.050659	0.22385	-0.001373	0.11627	0.027161	-0.002136	0.036774	-0.003052	-0.092773	0.007629	-0.000305	-0.027618
5.832	0.003357	0.015564	-0.10147	-0.000305	-0.053864	0.44617	0.023041	0.00351	-0.007935	-0.029755	-0.019379	-0.027008	0.20065	-0.26352	-0.009308	-0.039673	-0.04425	-0.011749	0.38269	0.073853	0.29785	0.18097	-0.008698	0.13199	0.030823	-0.000458	0.021057	0.000916	-0.018158	-0.006714	-0.003052	-0.022888
5.833	0.007629	-0.007172	-0.019226	-0.002899	-0.046997	0.001068	0.03006	0.000763	0.006104	0.053406	-0.016022	-0.020294	0.37064	-0.044708	0.009308	0.16922	-0.042267	-0.024567	-0.068665	0.11322	0.52551	0.11627	-0.041809	0.15686	0.042877	-0.004272	0.018463	-0.001831	0.066681	-0.011139	-0.005035	-0.025177
5.834	0.014343	0.022125	0.015259	0.009918	0.017395	-0.26504	0.04776	0.001984	0.036926	0.072632	-0.027161	-0.007019	0.25879	-0.1091	0.034485	0.084991	-0.0177	-0.078888	0.22537	-0.075531	0.32196	0.075378	0.029144	0.24857	0.026245	-0.009308	-0.009918	0.00061	0.21225	0.024719	-0.000916	-0.024567
5.835	0.010529	0.02594	-0.046387	0.012665	0.077057	-0.5748	0.059967	0.005341	0.030518	0.01358	-0.033417	-0.009308	0.021515	-0.21637	0.017395	0.045929	-0.002747	-0.04364	0.49271	-0.3186	0.19669	0.063324	0.088654	0.18463	-0.05127	0.000458	0.004578	-0.002899	0.22903	0.006714	-0.001984	-0.018158
5.836	0.00946	0.003662	0.037384	-0.014496	0.064087	-0.73685	0.033112	0.010529	0.02121	0.085449	-0.005035	-0.009155	-0.14145	-0.44281	-0.019531	0.02594	0.008545	-0.057373	-0.17502	-0.27069	0.16892	0.030212	0.15518	0.18646	-0.078125	0.003967	-0.023346	-0.00061	0.18723	0.018311	-0.002136	-0.019073
5.837	0.005798	0.009003	0.14786	-0.023956	0.02533	-0.43549	0.046539	0.010071	0.016174	0.27252	0.003357	-0.023346	-0.32013	-0.091248	0.002289	0.000458	0.007477	-0.016785	-0.36423	0.041504	0.17471	0.018768	0.11078	0.15442	-0.072784	-0.002136	0.037079	-0.002747	-0.045166	-0.000763	-0.002899	-0.016785
5.838	-0.001526	0.013885	0.20432	-0.002136	0.018921	-0.1532	0.054932	0.00412	-0.005188	0.52551	-0.002899	-0.021667	-0.2121	0.11932	-0.004425	-0.004425	0.006409	-0.039673	-0.27542	0.38101	0.15167	0.025024	0.023041	0.089722	-0.010834	0.00412	-0.00824	-0.000153	-0.072327	0.014343	-0.001526	-0.015411
5.839	0.013733	0.004883	0.14664	0.01297	-0.014496	-0.065918	0.050812	0.005341	-0.017242	0.21316	-0.010681	-0.015411	-0.1178	0.11627	0.012054	-0.019836	0.007324	-0.08316	-0.2034	0.4364	0.16571	0.043335	-0.13473	0.074463	0.14557	0.000458	-0.01297	0.006104	-0.085144	0.00824	-0.003662	-0.011139
5.84	-0.06546	0.005646	0.020142	-0.003357	-0.040131	-0.034943	0.00824	0.009766	-0.054474	-0.4483	-0.004425	-0.003815	-0.10819	0.041199	0.014954	-0.024719	0.007629	-0.099335	-0.22324	0.2626	0.12558	0.054932	-0.094299	0.018311	0.11276	0.00351	0.048218	-0.000458	-0.1384	-0.0354	-0.002899	-0.01358
5.841	-0.040588	0.015717	-0.020447	-0.011597	-0.080109	-0.10208	-0.017853	0.006104	-0.079803	-0.4245	-0.00946	-0.005798	-0.066681	0.027771	0.013733	-0.016479	0.044403	-0.034943	-0.50232	0.15289	0.073395	0.052795	-0.050354	-0.008698	0.060883	0.000153	0.016479	-0.001831	-0.0383	0.012054	-0.004272	-0.014954
5.842	-0.040741	0.020447	-0.032043	-0.033569	-0.046539	-0.22247	-0.034943	0.016327	-0.076904	-0.2739	-0.019073	0.002899	-0.007324	0.10101	0.012665	-0.010681	0.03418	-0.02243	-0.699	0.063934	0.09613	0.063629	-0.036774	-0.16037	0.00412	-0.008087	0.028076	0	0.002441	0.031891	-0.001678	-0.018768
5.843	-0.024261	0.052643	-0.019379	-0.014801	0.053864	-0.1471	-0.010834	0.009003	-0.05661	-0.045166	-0.003357	0.000305	-0.001373	-0.001068	0.00412	-0.017242	0.023956	0.039368	-0.38925	-0.014343	0.11459	0.037842	-0.023651	-0.23682	0.015564	0	0.094299	-0.001221	-0.055084	-0.015869	-0.008392	-0.019531
